<?xml version="1.0" encoding="UTF-8"?>
<svg id="_레이어_2" data-name="레이어 2" xmlns="http://www.w3.org/2000/svg" viewBox="0 0 795.06 199.7">
  <defs>
    <style>
      .cls-1 {
        fill: #ededed;
      }

      .cls-2 {
        fill: none;
        stroke: #ededed;
        stroke-miterlimit: 10;
      }
    </style>
  </defs>
  <g id="_레이어_1-2" data-name="레이어 1">
    <g>
      <g>
        <rect class="cls-1" width="8.91" height="8.91"/>
        <rect class="cls-1" y="63.12" width="8.91" height="8.91"/>
        <rect class="cls-1" y="126.25" width="8.91" height="8.91"/>
      </g>
      <g>
        <rect class="cls-1" x="370.91" width="8.91" height="8.91"/>
        <rect class="cls-1" x="370.91" y="126.25" width="8.91" height="8.91"/>
      </g>
      <g>
        <rect class="cls-1" x="741.82" width="8.91" height="8.91"/>
        <rect class="cls-1" x="741.82" y="63.12" width="8.91" height="8.91"/>
        <rect class="cls-1" x="741.82" y="126.25" width="8.91" height="8.91"/>
      </g>
    </g>
    <rect class="cls-2" x="4.46" y="4.46" width="741.82" height="126.25"/>
    <path class="cls-1" d="m35.1,36.11c5.32,0,13.3,2.41,18.24,8.99V4.46h17.35v95.99h-17.35v-8.1c-4.94,7.6-13.68,9.12-18.24,9.12-19.63,0-30.65-15.07-30.65-32.8s11.02-32.54,30.65-32.54Zm16.97,32.54c0-9.88-7.09-16.46-15.2-16.46-10.76,0-15.2,7.22-15.2,16.46s4.43,16.72,15.2,16.72c8.1,0,15.2-6.58,15.2-16.72Zm69.02-15.96c-9.37,0-16.21,7.85-16.21,15.7v34.32h-17.1V4.46h17.1v38.75c4.94-5.95,13.42-7.72,16.46-7.72,20.51,0,30.14,14.56,30.14,29.89v37.36h-16.46v-34.82c0-7.85-3.17-15.2-13.93-15.2Zm118.53,49.51h-16.34l-12.79-43.81-12.66,43.81h-16.46l-20.13-67.62h17.86l10.89,41.28,11.65-41.28h17.48l11.9,41.28,10.76-41.28h17.86l-20.01,67.62ZM285.96,4.46v98.27h-16.97V4.46h16.97Zm42.42,29.76c5.07,0,13.68,1.77,19.25,9.37v-9.62h17.35v64.2c-.13,21.4-17.86,32.42-36.98,32.42-11.9,0-24.31-5.7-30.65-15.07l14.56-9.75c4.43,6.84,12.54,8.23,16.08,8.23,6.33,0,19.63-3.04,19.63-13.3v-7.85c-6.33,7.85-14.06,9.62-19.25,9.62-20.51,0-32.16-14.31-32.16-34.19s11.65-34.06,32.16-34.06Zm17.73,33.94c0-9.75-7.6-17.35-16.34-17.35-11.02,0-16.08,7.6-16.08,17.35s5.07,17.73,16.08,17.73c8.74,0,16.34-7.6,16.34-17.73Zm65.98-16.97c-8.48,0-15.32,6.71-14.94,15.83v35.2h-17.1V34.59h17.1v8.86c3.42-6.33,11.02-8.86,16.84-8.86,17.73,0,31.03,8.23,31.03,31.91v35.71h-17.1v-35.46c0-9.24-4.69-15.58-15.83-15.58Zm107.76,46.85v16.97h-61.16v-16.97h61.16Zm42.8-90.54c16.72,0,33.3,12.41,33.3,31.28,0,4.43-1.01,8.74-2.91,12.54h.13l-27.99,49.89h-19.75l17.48-31.15h-.25c-16.97,0-33.3-13.8-33.3-31.28,0-18.87,16.72-31.28,33.3-31.28Zm-16.08,31.28c0,8.36,6.71,14.06,16.08,14.06s16.08-5.57,16.08-14.06c0-9.24-6.33-14.06-16.08-14.06s-16.08,4.81-16.08,14.06Zm104.47-.38c0-8.36-6.46-13.17-13.93-13.17-4.94,0-11.4,1.77-15.32,10.51l-15.7-7.09c7.47-16.72,23.17-20.64,31.03-20.64,14.56,0,31.15,12.41,31.15,30.39s-16.72,32.04-32.29,44.2h33.56v17.22h-60.28v-17.1l-.13-.13c18.62-17.73,41.92-29.51,41.92-44.2Zm31.78,19.12h-.13l27.73-49.51h19.75l-17.48,31.15h.13c17.1,0,33.43,13.8,33.43,31.4,0,18.62-16.59,31.15-33.43,31.15s-33.18-12.66-33.18-31.15c0-4.69,1.14-9.12,3.17-13.04Zm46.22,13.04c0-8.48-6.71-14.18-16.21-14.18s-15.96,5.57-15.96,14.18c0,9.12,6.33,13.93,15.96,13.93s16.21-4.81,16.21-13.93Z"/>
    <path class="cls-1" d="m746.27,130.7v68.99l20.21-20.21h28.58l-48.79-48.79Zm19.21,46.39l-16.82,16.82v-57.41l40.6,40.6h-23.78Z"/>
  </g>
</svg>